<?xml version="1.0" standalone="no"?>
<!DOCTYPE svg PUBLIC "-//W3C//DTD SVG 20010904//EN"
 "http://www.w3.org/TR/2001/REC-SVG-20010904/DTD/svg10.dtd">
<svg version="1.0" xmlns="http://www.w3.org/2000/svg"
 width="500.000000pt" height="264.000000pt" viewBox="0 0 500.000000 264.000000"
 preserveAspectRatio="xMidYMid meet">

<g transform="translate(0.000000,264.000000) scale(0.100000,-0.100000)"
fill="#000000" stroke="none">
<path d="M1357 2276 c-258 -88 -515 -440 -745 -1023 -131 -330 -262 -744 -262
-827 0 -106 80 -186 186 -186 63 0 129 33 159 79 13 20 37 90 55 155 71 271
212 669 320 906 98 215 231 425 317 501 56 49 115 72 150 58 109 -41 184 -258
228 -664 12 -113 33 -394 36 -490 0 -11 51 129 113 310 62 182 119 346 128
365 13 30 13 48 3 130 -45 349 -128 529 -295 640 -106 71 -265 90 -393 46z"/>
</g>
</svg>
